<svg width="144" height="133" viewBox="0 0 144 133" fill="none" xmlns="http://www.w3.org/2000/svg">
<path d="M69.5515 94.8961L60.0615 102.106L62.6615 89.4961L69.5515 94.8961Z" fill="#079942"/>
<path d="M117.371 22.1462C117.869 21.9795 118.403 21.9548 118.913 22.0749C119.424 22.195 119.891 22.4551 120.262 22.826C120.633 23.1969 120.893 23.6638 121.013 24.1744C121.133 24.6849 121.108 25.2189 120.941 25.7162L107.361 66.4962L93.2615 108.796C93.1164 109.226 92.8704 109.615 92.5439 109.931C92.2175 110.246 91.8202 110.479 91.3854 110.609C90.9505 110.739 90.4908 110.764 90.0447 110.679C89.5986 110.595 89.1791 110.406 88.8215 110.126L69.5115 94.8862L62.6615 89.4962L45.5215 75.9562L23.0815 58.2362C22.6793 57.9213 22.3702 57.503 22.1872 57.0261C22.0042 56.5492 21.9541 56.0315 22.0425 55.5284C22.1308 55.0252 22.3541 54.5555 22.6885 54.1694C23.023 53.7833 23.4561 53.4953 23.9415 53.3362L33.2315 50.2362L117.371 22.1462Z" fill="#45DD69"/>
<path d="M117.471 26.4163L62.6615 89.4962L60.5715 101.266C60.5193 101.575 60.3699 101.859 60.1449 102.077C59.92 102.295 59.6314 102.435 59.3211 102.478C59.0108 102.52 58.6951 102.462 58.4199 102.313C58.1448 102.163 57.9246 101.93 57.7915 101.646L45.5115 75.9562L116.221 25.0862C116.404 24.9716 116.621 24.924 116.835 24.9514C117.048 24.9789 117.246 25.0798 117.394 25.2369C117.541 25.394 117.63 25.5975 117.644 25.8126C117.658 26.0278 117.597 26.2411 117.471 26.4163Z" fill="#05C151"/>
</svg>
