<svg width="771" height="136" viewBox="0 0 771 136" fill="none" xmlns="http://www.w3.org/2000/svg">
<path d="M179.4 40.4652H124.069V66.9915H179.4V40.4652Z" fill="#3A424E"/>
<path d="M294.683 28.0971C289.833 19.764 282.902 12.8331 274.569 7.98263C266.181 3.1625 256.675 0.625931 247.001 0.625931C237.326 0.625931 227.821 3.1625 219.433 7.98263C211.138 12.8378 204.25 19.7703 199.449 28.0971C194.558 36.4927 192.006 46.0461 192.06 55.7625V135.374H219.466V102.371L220.117 102.826C228.047 108.349 237.536 111.189 247.196 110.931C256.867 110.984 266.376 108.444 274.731 103.575C283.065 98.7246 289.995 91.7936 294.846 83.4606C299.741 75.0623 302.32 65.5157 302.32 55.7951C302.32 46.0745 299.741 36.5279 294.846 28.1296L294.683 28.0971ZM267.115 76.1699C264.555 78.8558 261.458 80.9738 258.027 82.3868C254.596 83.7997 250.906 84.476 247.196 84.3719C243.465 84.4588 239.756 83.7753 236.3 82.3641C232.845 80.9529 229.718 78.8442 227.114 76.1699C224.458 73.4902 222.37 70.3011 220.977 66.7941C219.585 63.2871 218.915 59.5348 219.01 55.7625C218.915 51.9903 219.585 48.238 220.977 44.731C222.37 41.224 224.458 38.0349 227.114 35.3552C229.718 32.6809 232.845 30.5722 236.3 29.161C239.756 27.7498 243.465 27.0662 247.196 27.1532C250.9 27.0537 254.584 27.7322 258.009 29.145C261.435 30.5578 264.526 32.6734 267.083 35.3552C269.677 38.0687 271.709 41.269 273.061 44.7715C274.413 48.274 275.058 52.0095 274.959 55.7625C275.062 59.5133 274.422 63.2475 273.076 66.7499C271.73 70.2523 269.704 73.4538 267.115 76.1699Z" fill="#3A424E"/>
<path d="M396.46 7.98263C388.072 3.1625 378.567 0.625931 368.892 0.625931C359.218 0.625931 349.713 3.1625 341.325 7.98263C333.006 12.8519 326.079 19.7785 321.21 28.0971C316.315 36.4953 313.736 46.0419 313.736 55.7625C313.736 65.4832 316.315 75.0298 321.21 83.428C326.071 91.7446 333 98.6626 341.325 103.51C349.679 108.416 359.205 110.969 368.892 110.898C374.721 110.916 380.476 109.602 385.719 107.058C390.061 105.326 393.656 102.123 395.874 98.0094L396.655 96.2192V109.238H423.833V55.7625C423.895 46.0451 421.343 36.4897 416.444 28.0971C411.652 19.7638 404.762 12.8294 396.46 7.98263ZM389.007 76.3326C386.447 79.0112 383.356 81.1246 379.931 82.5372C376.506 83.9497 372.824 84.6301 369.12 84.5346C365.384 84.6183 361.671 83.9334 358.211 82.5225C354.751 81.1116 351.618 79.0047 349.006 76.3326C346.351 73.6464 344.267 70.4507 342.88 66.938C341.493 63.4252 340.831 59.6681 340.934 55.8927C340.835 52.1228 341.499 48.3719 342.886 44.865C344.274 41.3582 346.355 38.1678 349.006 35.4854C351.618 32.8133 354.751 30.7065 358.211 29.2955C361.671 27.8846 365.384 27.1997 369.12 27.2834C372.824 27.1879 376.506 27.8683 379.931 29.2808C383.356 30.6934 386.447 32.8068 389.007 35.4854C394.227 40.9287 397.072 48.2223 396.916 55.7625C397.013 59.5231 396.364 63.2655 395.006 66.7738C393.649 70.2821 391.61 73.4866 389.007 76.2025V76.3326Z" fill="#3A424E"/>
<path d="M540.124 28.0971C535.274 19.764 528.343 12.8331 520.01 7.98263C511.622 3.1625 502.117 0.625931 492.442 0.625931C482.768 0.625931 473.263 3.1625 464.874 7.98263C456.579 12.8378 449.691 19.7703 444.89 28.0971C440.014 36.4989 437.463 46.0481 437.502 55.7625V135.374H464.907V102.371L465.558 102.826C473.443 108.315 482.87 111.154 492.475 110.931C502.146 110.984 511.654 108.444 520.01 103.575C528.343 98.7246 535.274 91.7936 540.124 83.4606C545.019 75.0623 547.598 65.5157 547.598 55.7951C547.598 46.0745 545.019 36.5279 540.124 28.1296V28.0971ZM512.557 76.1699C509.995 78.8542 506.898 80.9711 503.467 82.3839C500.036 83.7967 496.347 84.474 492.638 84.3719C488.907 84.453 485.199 83.7668 481.745 82.3559C478.291 80.945 475.163 78.8395 472.556 76.1699C469.911 73.4831 467.834 70.2919 466.447 66.7861C465.06 63.2803 464.393 59.5315 464.484 55.7625C464.393 51.9936 465.06 48.2448 466.447 44.739C467.834 41.2332 469.911 38.042 472.556 35.3552C475.163 32.6856 478.291 30.5801 481.745 29.1692C485.199 27.7583 488.907 27.0721 492.638 27.1532C496.347 27.0511 500.036 27.7283 503.467 29.1412C506.898 30.554 509.995 32.6709 512.557 35.3552C515.183 38.0533 517.247 41.2473 518.627 44.7509C520.008 48.2545 520.677 51.9977 520.596 55.7625C520.681 59.5251 520.017 63.267 518.642 66.7705C517.268 70.274 515.21 73.4691 512.589 76.1699H512.557Z" fill="#3A424E"/>
<path d="M95.7195 17.0959C90.6392 11.895 84.5614 7.77298 77.8502 4.97666C71.1391 2.18034 63.9326 0.767285 56.6623 0.822118H55.1651C47.6988 0.759773 40.2918 2.15272 33.3582 4.92312C26.7585 7.69371 20.8066 11.8057 15.8801 16.9983C11.0302 22.1021 7.22649 28.1062 4.68375 34.6716C-0.606092 48.2796 -0.606092 63.3756 4.68375 76.9836C7.27033 83.4859 11.0825 89.4306 15.9127 94.4942C20.8494 99.6194 26.7876 103.674 33.3582 106.407C40.2584 109.336 47.6692 110.873 55.1651 110.931H55.751C66.0945 111.159 76.2999 108.523 85.2392 103.315C92.5884 99.1032 98.6184 92.9268 102.652 85.4785L103.987 83.0374L79.6735 75.7468L78.9249 77.0161C78.1354 78.4332 77.1852 79.7547 76.0932 80.9544C74.5357 82.6015 72.7489 84.0156 70.788 85.153C68.6765 86.3733 66.4104 87.3039 64.0506 87.9196C61.589 88.5218 59.0662 88.8385 56.5321 88.8635C53.1873 88.857 49.874 88.2164 46.7678 86.9757C43.6837 85.7468 40.8657 83.9344 38.4682 81.6379C36.0173 79.2267 34.0216 76.3931 32.5771 73.2731C31.5362 71.0954 30.7603 68.8007 30.2662 66.4381V65.9499H109.487L110.008 62.272C110.008 61.4583 110.203 60.5796 110.268 59.6031C110.42 58.089 110.496 56.5682 110.496 55.0465C110.492 48.0178 109.213 41.0482 106.721 34.4764C104.273 27.9955 100.53 22.0816 95.7195 17.0959ZM29.6152 44.8265V44.3383C30.0873 42.0954 30.8078 39.9121 31.7634 37.8288C33.1004 34.8117 35.0231 32.09 37.4199 29.8217C39.8168 27.5533 42.6402 25.7833 45.7263 24.6144C48.8225 23.3364 52.1411 22.6838 55.4906 22.6941H56.0439C59.3908 22.7117 62.704 23.3633 65.8082 24.6144C68.8858 25.7863 71.7132 27.5313 74.1404 29.757C76.5754 32.0675 78.552 34.8171 79.9664 37.8613C80.9747 39.9327 81.7287 42.1184 82.2122 44.3708V44.8591L29.6152 44.8265Z" fill="#3A424E"/>
<path d="M655.018 17.0634C650.11 11.994 644.247 7.94551 637.768 5.15095C630.939 2.18167 623.571 0.652635 616.124 0.659382H614.561C607.052 0.636002 599.61 2.08454 592.657 4.92312C586.056 7.70579 580.104 11.8287 575.179 17.0308C570.311 22.1209 566.505 28.1287 563.982 34.7042C558.686 48.311 558.686 63.4093 563.982 77.0161C566.561 83.5226 570.374 89.4687 575.211 94.5267C580.148 99.652 586.086 103.707 592.657 106.439C599.612 109.36 607.083 110.854 614.627 110.833H615.212C625.556 111.061 635.761 108.426 644.701 103.217C652.038 99.0008 658.056 92.8248 662.081 85.3809L663.383 82.9398L639.07 75.6491L638.321 76.9185C637.532 78.3356 636.582 79.6571 635.49 80.8567C633.934 82.5059 632.147 83.9202 630.184 85.0554C628.079 86.2886 625.811 87.2199 623.447 87.8219C620.988 88.4401 618.464 88.757 615.929 88.7658C609.2 88.7818 602.726 86.1923 597.865 81.5402C595.393 79.1622 593.365 76.3627 591.876 73.2731C590.844 71.0916 590.069 68.798 589.565 66.4381V65.9499H668.688L669.176 62.3046C669.176 61.5017 669.274 60.5904 669.469 59.5706C669.623 58.0457 669.699 56.514 669.697 54.9814C669.69 47.953 668.411 40.9839 665.922 34.4113C663.502 27.9486 659.792 22.0461 655.018 17.0634ZM588.947 44.7614V44.2732C589.445 42.0334 590.176 39.8517 591.127 37.7637C592.499 34.721 594.457 31.9782 596.888 29.6919C599.307 27.4313 602.135 25.6528 605.22 24.4517C608.319 23.184 611.637 22.5424 614.985 22.5639H615.538C618.883 22.5704 622.196 23.211 625.302 24.4517C628.371 25.6571 631.194 27.4107 633.634 29.6268C636.078 31.9177 638.056 34.6583 639.46 37.6986C640.449 39.778 641.202 41.9614 641.706 44.2081V44.6963L588.947 44.7614Z" fill="#3A424E"/>
<path d="M767.21 12.5718C762.557 9.44765 757.554 6.88052 752.303 4.92308C746.937 2.93953 741.262 1.92563 735.541 1.92869H734.988C727.924 1.90969 720.936 3.38492 714.483 6.25753C708.193 9.067 702.486 13.0303 697.656 17.9421C692.793 22.839 688.905 28.6156 686.199 34.9645C683.371 41.5203 681.931 48.5904 681.968 55.7299V109.075H708.95V55.5672C708.92 52.0417 709.63 48.549 711.033 45.3147C712.38 42.1133 714.324 39.1974 716.761 36.7221C719.127 34.2663 721.96 32.3077 725.093 30.9612C730.564 28.5887 736.699 28.2312 742.409 29.9522C744.863 30.7648 747.247 31.7771 749.537 32.9791L751.685 34.2159L770.465 14.6874L767.21 12.5718Z" fill="#3A424E"/>
</svg>
